<?xml version="1.0" encoding="UTF-8" standalone="no"?>
<!-- Created with Inkscape (http://www.inkscape.org/) -->

<svg
   width="80.265572mm"
   height="75.265526mm"
   viewBox="0 0 80.264563 75.264575"
   version="1.1"
   id="svg8"
   inkscape:version="0.92.3 (2405546, 2018-03-11)"
   sodipodi:docname="LineLogoBackgroundBlack.svg"
   inkscape:export-filename="LineLogoBackgroundBlack.png"
   inkscape:export-xdpi="96"
   inkscape:export-ydpi="96"
   xmlns:inkscape="http://www.inkscape.org/namespaces/inkscape"
   xmlns:sodipodi="http://sodipodi.sourceforge.net/DTD/sodipodi-0.dtd"
   xmlns="http://www.w3.org/2000/svg"
   xmlns:svg="http://www.w3.org/2000/svg"
   xmlns:rdf="http://www.w3.org/1999/02/22-rdf-syntax-ns#"
   xmlns:cc="http://creativecommons.org/ns#"
   xmlns:dc="http://purl.org/dc/elements/1.1/">
  <defs
     id="defs2" />
  <sodipodi:namedview
     id="base"
     pagecolor="#323232"
     bordercolor="#666666"
     borderopacity="1.0"
     inkscape:pageopacity="0"
     inkscape:pageshadow="2"
     inkscape:zoom="0.70710685"
     inkscape:cx="-1011.5836"
     inkscape:cy="11.98921"
     inkscape:document-units="px"
     inkscape:current-layer="layer5"
     showgrid="true"
     showborder="false"
     inkscape:window-width="1920"
     inkscape:window-height="1017"
     inkscape:window-x="-8"
     inkscape:window-y="-8"
     inkscape:window-maximized="1"
     showguides="false"
     inkscape:guide-bbox="true"
     inkscape:snap-bbox="true"
     inkscape:lockguides="false"
     inkscape:showpageshadow="2"
     inkscape:pagecheckerboard="0"
     inkscape:deskcolor="#d1d1d1"
     inkscape:export-bgcolor="#ffffff00">
    <inkscape:grid
       type="xygrid"
       id="grid4366"
       originx="1368.0858"
       originy="-1105.8193"
       spacingy="1"
       spacingx="1"
       units="px"
       visible="true" />
  </sodipodi:namedview>
  <metadata
     id="metadata5">
    <rdf:RDF>
      <cc:Work
         rdf:about="">
        <dc:format>image/svg+xml</dc:format>
        <dc:type
           rdf:resource="http://purl.org/dc/dcmitype/StillImage" />
        <dc:title />
      </cc:Work>
    </rdf:RDF>
  </metadata>
  <g
     inkscape:groupmode="layer"
     id="layer1"
     inkscape:label="Bg"
     style="display:inline"
     transform="translate(4.6602568,8.6518183)">
    <rect
       style="display:inline;fill:#000000;fill-opacity:1;stroke:#000000;stroke-width:0.26458"
       id="rect3"
       width="79.999985"
       height="75"
       x="-361.83588"
       y="292.70996"
       ry="10.212794"
       transform="translate(357.30791,-301.22949)"
       inkscape:export-filename="LineLogoBackgroundBlack.png"
       inkscape:export-xdpi="958.60876"
       inkscape:export-ydpi="958.60876" />
  </g>
  <g
     inkscape:groupmode="layer"
     id="layer2"
     inkscape:label="F"
     style="display:inline"
     transform="translate(361.96817,-292.57767)">
    <path
       d="m -302.67952,307.57942 -2.6458,5.2916 h -18.5206 v 31.7496 l -5.2916,3.9687 v 11.9061 l 10.5832,-7.9374 v -7.9374 h 14.28732 c 0,0 0.13229,-0.16536 0.33899,-0.53743 0.10335,-0.18603 0.22531,-0.42374 0.35863,-0.71829 0.13333,-0.29455 0.27802,-0.64595 0.42684,-1.05936 0.14883,-0.4134 0.30179,-0.88882 0.45165,-1.43142 0.14986,-0.54259 0.29662,-1.15237 0.43304,-1.83449 0.13643,-0.68212 0.26252,-1.43658 0.37104,-2.26856 0.0543,-0.41599 0.10425,-0.85149 0.14882,-1.30688 0.0446,-0.4554 0.0837,-0.93068 0.11679,-1.42677 -0.10562,0.26237 -0.22095,0.50587 -0.34571,0.73121 -0.12477,0.22534 -0.25906,0.43253 -0.40152,0.62269 -0.14247,0.19017 -0.29345,0.36301 -0.45217,0.51986 -0.15871,0.15685 -0.32515,0.29783 -0.49867,0.42323 -0.17351,0.1254 -0.35417,0.23543 -0.54104,0.33124 -0.18687,0.0958 -0.38,0.17738 -0.57877,0.24546 -0.19877,0.0681 -0.40313,0.12264 -0.61236,0.16484 -0.20923,0.0422 -0.42306,0.0717 -0.6413,0.0899 -0.21823,0.0182 -0.44081,0.0251 -0.66661,0.0212 -0.2258,-0.004 -0.45486,-0.0186 -0.68677,-0.0429 -0.23192,-0.0243 -0.46674,-0.0581 -0.70331,-0.10077 -0.23658,-0.0427 -0.47489,-0.0942 -0.71468,-0.15348 -0.47958,-0.11851 -0.96419,-0.2682 -1.44795,-0.44183 -0.48376,-0.17363 -0.96696,-0.3711 -1.44331,-0.58497 -0.47635,-0.21386 -0.94616,-0.44444 -1.40351,-0.68367 -0.45736,-0.23922 -0.90233,-0.4872 -1.3291,-0.73689 -0.42678,-0.2497 -0.83494,-0.50092 -1.21955,-0.7462 -0.38461,-0.24529 -0.74555,-0.48455 -1.07641,-0.71054 -0.66171,-0.45199 -1.20408,-0.85083 -1.58128,-1.13635 -0.37719,-0.28553 -0.5891,-0.45785 -0.5891,-0.45785 0.41341,-0.82681 0.81733,-1.60983 1.21231,-2.35073 0.39498,-0.7409 0.78115,-1.43969 1.15806,-2.09856 0.37691,-0.65886 0.7446,-1.27755 1.10379,-1.85826 0.3592,-0.5807 0.70977,-1.12343 1.0516,-1.62985 0.34184,-0.50642 0.6751,-0.9768 0.99993,-1.41282 0.32483,-0.43601 0.6411,-0.83766 0.94928,-1.20714 0.30819,-0.36949 0.60831,-0.70654 0.9002,-1.01337 0.29188,-0.30682 0.57567,-0.58342 0.85161,-0.83146 0.27595,-0.24804 0.54423,-0.46779 0.8046,-0.66093 0.26036,-0.19314 0.51294,-0.35967 0.75808,-0.50177 0.24514,-0.14211 0.48286,-0.25955 0.71313,-0.3545 0.23026,-0.095 0.45293,-0.16743 0.66868,-0.21911 0.21575,-0.0517 0.42421,-0.0828 0.62579,-0.0951 0.20159,-0.0123 0.39616,-0.006 0.58394,0.0176 0.18778,0.0233 0.36879,0.0634 0.54311,0.11834 0.17433,0.0549 0.3421,0.12454 0.50332,0.20722 0.16123,0.0827 0.31608,0.17815 0.46457,0.28473 0.14849,0.10658 0.29074,0.22427 0.42684,0.35088 0.1361,0.12661 0.26608,0.26238 0.39015,0.40514 0.12407,0.14275 0.2421,0.29248 0.3545,0.44751 0.22479,0.31006 0.42645,0.64078 0.60667,0.97667 0.18022,0.3359 0.339,0.67696 0.47749,1.00768 0.13849,0.33073 0.25696,0.65112 0.35656,0.94567 0.0996,0.29455 0.18035,0.56326 0.24391,0.79064 0.12712,0.45474 0.185,0.74413 0.185,0.74413 0.52916,0 1.15754,0 1.81899,-0.0413 0.33072,-0.0207 0.66972,-0.0517 1.00871,-0.0982 0.33899,-0.0465 0.67798,-0.10852 1.00871,-0.1912 0.33072,-0.0827 0.65318,-0.18603 0.9591,-0.31522 0.15296,-0.0646 0.30179,-0.13578 0.44545,-0.21394 0.14366,-0.0782 0.28215,-0.16329 0.41444,-0.25631 0.13229,-0.093 0.25838,-0.19365 0.37723,-0.30282 0.11885,-0.10916 0.23047,-0.22686 0.33383,-0.35346 0.10335,-0.12661 0.19843,-0.26238 0.28421,-0.40772 0.0858,-0.14534 0.16226,-0.30024 0.22841,-0.4656 l 5.2916,-13.229 z"
       style="display:inline;fill:#ffffff;fill-opacity:1;stroke:none;stroke-width:2.11664;stroke-dasharray:none;stroke-opacity:1"
       id="path2"
       inkscape:export-filename="..\..\Logo\LineLogo.png"
       inkscape:export-xdpi="958.60876"
       inkscape:export-ydpi="958.60876" />
  </g>
  <g
     inkscape:groupmode="layer"
     id="layer5"
     inkscape:label="T"
     style="display:inline"
     transform="translate(361.96818,-292.57767)">
    <path
       d="m -350.30392,302.28782 -5.2916,10.5832 h 21.1664 v 39.687 l 5.2916,-3.9687 5.2916,-3.9687 v -31.7496 h 18.5206 l 2.6458,-5.2916 2.6458,-5.2916 z"
       style="fill:#ffffff;fill-opacity:1;stroke:#000000;stroke-width:2.11664;stroke-dasharray:none;stroke-opacity:1"
       id="path1"
       inkscape:export-filename="..\..\Logo\LineLogo.png"
       inkscape:export-xdpi="958.60876"
       inkscape:export-ydpi="958.60876" />
  </g>
</svg>
